<svg width="14.444336" height="13.000000" viewBox="0 0 14.4443 13" fill="none" xmlns="http://www.w3.org/2000/svg" xmlns:xlink="http://www.w3.org/1999/xlink">
	<desc>
			Created with Pixso.
	</desc>
	<defs/>
	<path id="Vector" d="M14.4443 3.61108L14.4443 12.2778C14.4443 12.4693 14.3684 12.653 14.2329 12.7885C14.0974 12.9239 13.9138 13 13.7222 13L0.722168 13C0.530762 13 0.346924 12.9239 0.211426 12.7885C0.0761719 12.653 0 12.4693 0 12.2778L0 2.88892L13.7222 2.88892C13.9138 2.88892 14.0974 2.96497 14.2329 3.1004C14.3684 3.23584 14.4443 3.41956 14.4443 3.61108ZM7.52124 1.44446L0 1.44446L0 0.722229C0 0.530701 0.0761719 0.346985 0.211426 0.211548C0.346924 0.0761108 0.530762 0 0.722168 0L6.07666 0L7.52124 1.44446Z" fill="#3A49A4" fill-opacity="1.000000" fill-rule="nonzero"/>
</svg>
