<svg width="24.000000" height="24.000000" viewBox="0 0 24 24" fill="none" xmlns="http://www.w3.org/2000/svg" xmlns:xlink="http://www.w3.org/1999/xlink">
	<desc>
			Created with Pixso.
	</desc>
	<defs>
		<clipPath id="clip72_1381">
			<rect id="Frame" width="24.000000" height="24.000000" fill="white" fill-opacity="0"/>
		</clipPath>
	</defs>
	<rect id="Frame" width="24.000000" height="24.000000" fill="#FFFFFF" fill-opacity="0"/>
	<g clip-path="url(#clip72_1381)">
		<path id="Vector" d="M12 13.5C11.6023 13.5 11.2207 13.342 10.9395 13.0607C10.658 12.7794 10.5 12.3978 10.5 12C10.5 11.6022 10.658 11.2206 10.9395 10.9393C11.2207 10.658 11.6023 10.5 12 10.5C12.3977 10.5 12.7793 10.658 13.0605 10.9393C13.342 11.2206 13.5 11.6022 13.5 12C13.5 12.3978 13.342 12.7794 13.0605 13.0607C12.7793 13.342 12.3977 13.5 12 13.5ZM11.4719 16.494C11.647 16.704 11.823 16.908 12 17.103C12.177 16.908 12.353 16.705 12.5281 16.494C12.176 16.5015 11.824 16.5015 11.4719 16.494ZM9.47705 16.369C8.70898 16.2891 7.94629 16.1662 7.19189 16.001C7.11694 16.351 7.06006 16.691 7.02197 17.017C6.83203 18.6 7.09692 19.562 7.5 19.794C7.90308 20.027 8.86792 19.775 10.145 18.82C10.408 18.623 10.6731 18.404 10.939 18.165C10.4185 17.5941 9.93042 16.9945 9.47705 16.369ZM16.8081 16.001C16.0911 16.161 15.325 16.285 14.5229 16.369C14.0696 16.9945 13.5815 17.5941 13.061 18.165C13.3269 18.405 13.592 18.623 13.855 18.82C15.1321 19.775 16.0969 20.027 16.5 19.794C16.9031 19.562 17.167 18.6 16.979 17.017C16.9377 16.6759 16.8811 16.3369 16.8091 16.001L16.8081 16.001ZM18.2581 15.614C18.835 18.253 18.532 20.354 17.25 21.094C15.968 21.834 13.9971 21.046 12 19.227C10.0029 21.046 8.03198 21.833 6.75 21.093C5.46802 20.353 5.16504 18.253 5.74097 15.613C3.16699 14.794 1.5 13.48 1.5 12C1.5 10.52 3.16699 9.20699 5.74097 8.38599C5.16504 5.74699 5.46802 3.64599 6.75 2.90599C8.03198 2.16599 10.0029 2.95399 12 4.77299C13.9971 2.95399 15.968 2.16699 17.25 2.90699C18.532 3.647 18.835 5.74699 18.259 8.38699C20.833 9.20599 22.5 10.52 22.5 12C22.5 13.48 20.833 14.793 18.259 15.614L18.2581 15.614ZM10.938 5.83499C10.6836 5.6048 10.4192 5.38624 10.145 5.17999C8.86792 4.22499 7.90308 3.97299 7.5 4.20599C7.09692 4.43799 6.83301 5.39999 7.021 6.98299C7.06104 7.30999 7.11694 7.64899 7.19092 7.99899C7.94556 7.83372 8.70874 7.71087 9.47705 7.63099C9.9519 6.97799 10.4419 6.37699 10.939 5.83499L10.938 5.83499ZM14.5229 7.63099C15.325 7.71499 16.0911 7.83999 16.8081 7.99899C16.8831 7.64899 16.9399 7.30899 16.978 6.98299C17.168 5.39999 16.9031 4.43799 16.5 4.20599C16.0969 3.97299 15.1321 4.22499 13.855 5.17999C13.5806 5.38622 13.3157 5.60477 13.061 5.83499C13.5581 6.37699 14.0481 6.97799 14.5229 7.63099ZM12.5281 7.50599C12.353 7.29599 12.177 7.092 12 6.89699C11.823 7.092 11.647 7.29499 11.4719 7.50599C11.824 7.49852 12.176 7.49852 12.5281 7.50599ZM8.37207 14.704C8.18945 14.4031 8.01343 14.0984 7.84399 13.79C7.74902 14.047 7.66089 14.3 7.58105 14.551C7.83789 14.607 8.10205 14.658 8.37109 14.704L8.37207 14.704ZM10.304 14.938C11.4331 15.0219 12.5669 15.0219 13.696 14.938C14.3333 14.0019 14.9001 13.0199 15.3921 12C14.9001 10.9801 14.3333 9.99804 13.696 9.06199C12.5669 8.97813 11.4331 8.97813 10.304 9.06199C9.66675 9.99804 9.09985 10.9801 8.60791 12C9.09985 13.0199 9.66675 14.0019 10.304 14.938ZM16.156 10.21C16.251 9.953 16.3391 9.69999 16.4189 9.44899C16.1567 9.39211 15.8936 9.34109 15.6289 9.29599C15.811 9.5969 15.9868 9.90163 16.156 10.21ZM6.12988 9.83699C5.79004 9.94699 5.46802 10.067 5.16602 10.197C3.70093 10.825 3 11.535 3 12C3 12.465 3.69995 13.175 5.16602 13.803C5.46802 13.933 5.79004 14.053 6.12988 14.163C6.35205 13.463 6.62695 12.737 6.95508 12C6.63989 11.295 6.3645 10.5728 6.12988 9.83699ZM7.58008 9.44899C7.66089 9.69899 7.74902 9.95299 7.84399 10.209C8.01343 9.90096 8.18945 9.59656 8.37207 9.29599C8.10205 9.342 7.83789 9.39299 7.58105 9.44899L7.58008 9.44899ZM17.8701 14.163C18.21 14.053 18.532 13.933 18.834 13.803C20.2991 13.175 21 12.465 21 12C21 11.535 20.3 10.825 18.834 10.197C18.5183 10.0625 18.1965 9.94237 17.8701 9.83699C17.6479 10.537 17.373 11.263 17.0449 12C17.373 12.737 17.6479 13.462 17.8701 14.163ZM16.4199 14.551C16.3391 14.301 16.251 14.047 16.156 13.791C15.9866 14.099 15.8105 14.4034 15.6279 14.704C15.8979 14.658 16.1621 14.607 16.4189 14.551L16.4199 14.551Z" fill="#607B96" fill-opacity="1.000000" fill-rule="nonzero"/>
	</g>
</svg>
